<svg xmlns="http://www.w3.org/2000/svg" width="256" height="256"><path fill-opacity=".016" d="M0 128.004v128.004l128.25-.254 128.25-.254.254-127.75L257.008 0H0v128.004m.485.496c0 70.4.119 99.053.265 63.672.146-35.38.146-92.98 0-128C.604 29.153.485 58.1.485 128.5" fill="#1976D2" fill-rule="evenodd"/><path fill-opacity=".207" d="M115.251 1.545C107.557 3.617 102.33 6.579 96.17 12.36c-6.511 6.111-11.32 13.316-21.45 32.14-4.144 7.7-13.47 23.9-20.725 36-20.46 34.123-30.005 55.179-33.071 72.952-2.779 16.105 1.007 41.518 8.36 56.118 11.823 23.479 30.865 36.748 62.331 43.434 14.135 3.004 44.441 3.806 60.997 1.614 37.037-4.902 60.255-19.27 72.912-45.118 5.634-11.506 8.38-22.915 9.147-38.004 1.279-25.176-6.132-44.932-34.883-92.996-6.909-11.55-16.482-28.2-21.274-37-4.792-8.8-10.221-18.055-12.064-20.568-4.551-6.201-12.295-13.302-17.277-15.844-9.69-4.943-23.403-6.375-33.922-3.543M119 22.115c-8.153 2.456-13.075 8.46-24.505 29.885-4.254 7.975-13.382 23.95-20.284 35.5C60.881 109.805 49 131.942 49 134.472c0 1.31 2.411 1.528 16.928 1.528h16.929L98.16 89.974l15.304-46.026 14.018.276 14.018.276 15.34 45.75L172.18 136h16.91c13.831 0 16.91-.255 16.91-1.401 0-2.485-12.367-25.549-24.954-46.537-6.741-11.241-15.619-26.722-19.728-34.403-11.519-21.528-15.128-26.5-21.654-29.833-4.819-2.46-15.296-3.328-20.664-1.711m6.524 46.611c-.549 2.926-7.566 27.735-18.249 64.524-.472 1.626.923 1.75 19.608 1.75 11.065 0 20.117-.253 20.117-.561 0-.309-2.869-10.322-6.375-22.25-3.507-11.929-7.894-27.423-9.75-34.432-1.856-7.009-3.662-12.746-4.014-12.75-.351-.004-.953 1.67-1.337 3.719m-84.14 90.188c-1.726 11.535 2.022 32.36 7.811 43.4 11.983 22.854 42.262 34.275 85.805 32.365 45.719-2.005 69.496-17.032 76.622-48.425 1.705-7.51 2.608-29.336 1.27-30.688-.334-.338-8.257-.491-17.608-.34l-17 .274 6.835 21c3.759 11.55 6.846 21.351 6.858 21.78.013.429-5.688.654-12.667.5l-12.691-.28-6.444-21.75L153.73 155h-53.46l-6.444 21.75-6.445 21.75-12.19.281C65.675 199 63 198.775 63 197.754c0-.719 3.11-10.613 6.911-21.987l6.91-20.679-17.388-.294-17.388-.294-.661 4.414" fill="#1976D2" fill-rule="evenodd"/><path fill-opacity=".362" d="M114.024 2.541C98.691 6.835 91.082 15.159 74.758 45.5c-4.142 7.7-13.238 23.45-20.212 35-21.244 35.18-31.044 57.297-33.653 75.952-1.964 14.039 1.255 36.464 7.186 50.063 8.506 19.503 26.502 35.077 48.921 42.338 28.405 9.2 72.595 9.2 101 0 13.363-4.328 23.852-10.617 33.037-19.81 13.675-13.686 20.695-29.917 23.027-53.243 2.644-26.443-4.703-46.676-36.239-99.8-7.999-13.475-18.005-30.831-22.235-38.569C164.321 16.819 156.613 8.361 145 3.867c-7.312-2.829-23.181-3.508-30.976-1.326m5.915 18.824C110.526 23.903 106.447 28.65 94.473 51c-4.273 7.975-13.404 23.95-20.29 35.5-16.697 28.002-25.048 44.564-29.638 58.781-3.798 11.764-3.803 11.801-3.29 25 .777 20.017 4.989 31.578 15.641 42.928 7.154 7.625 14.412 12.141 25.492 15.865 23.404 7.864 65.644 8.021 89.358.331 20.821-6.752 34.453-20.875 39.966-41.405 1.261-4.696 1.751-10.386 1.767-20.5.02-13.372-.132-14.443-3.399-23.883-4.488-12.967-12.888-29.362-28.237-55.117-6.884-11.55-16.022-27.525-20.306-35.5C148.612 28.941 143.745 23.299 134 21.076c-5.696-1.3-8.373-1.245-14.061.289m-7.051 26.357C110.937 52.725 80 145.344 80 146.183c0 .449 21.375.817 47.5.817 26.794 0 47.5-.385 47.5-.883 0-.485-7.593-23.323-16.874-50.75L141.252 45.5l-13.64-.278-13.64-.279-1.084 2.779m12.186 21.028c-1.299 5.305-17.942 63.742-18.764 65.884-.433 1.128 3.17 1.366 20.69 1.366 16.556 0 21.11-.274 20.742-1.25-.883-2.341-14.577-50.211-17.307-60.5-1.496-5.638-3.052-10.25-3.459-10.25-.406 0-1.262 2.138-1.902 4.75" fill="#1976D2" fill-rule="evenodd"/><path fill-opacity=".354" d="M107.92 123.721c-.756 2.661-1.514 4.003-1.712 3.029-.304-1.499-1.554-1.75-8.708-1.75-6.724 0-8.416-.301-8.677-1.544-.178-.849-2.183 3.876-4.457 10.5L80.232 146h46.884c25.786 0 46.884-.351 46.884-.779 0-.429-2.029-6.616-4.508-13.75-2.48-7.134-4.282-11.775-4.005-10.314.278 1.462.798 3.487 1.156 4.5.533 1.508.407 1.616-.696.593-.853-.791-4.392-1.25-9.647-1.25-7.209 0-8.31.23-8.378 1.75-.042.963-.907-.5-1.922-3.25-2.47-6.693-2.47-4.589 0 3.5 1.092 3.575 1.988 7.063 1.992 7.75.006.961-4.855 1.25-20.992 1.25-11.55 0-21-.347-21-.77 0-.424.918-4.081 2.039-8.128s1.858-7.538 1.638-7.758c-.221-.221-1.011 1.749-1.757 4.377m-57.461 2.346c-.363.586-.445 1.281-.183 1.543s.743-.218 1.069-1.067c.676-1.762.1-2.072-.886-.476M205.38 130c.276.825 1.882 4.974 3.568 9.219 4.794 12.07 6.318 20.735 5.563 31.638-2.038 29.441-13.628 46.948-37.693 56.937-20.995 8.715-60.981 10.412-87.4 3.71-17.573-4.457-32.813-14.696-39.85-26.771-4.091-7.02-7.172-16.992-8.57-27.733-1.507-11.585-.789-20.392 2.515-30.851 1.378-4.364 2.235-8.771 1.902-9.792-.421-1.294-.324-1.469.317-.579.689.956 1.227.608 2.132-1.379.666-1.462 1.01-2.858.765-3.104-.246-.245-.707.376-1.025 1.38-.509 1.602-1.651 1.804-9.342 1.656-8.019-.154-8.871.015-10.054 2-1.266 2.126-1.28 2.119-.702-.331.503-2.134.427-2.24-.522-.724-.612.977-2.208 6.097-3.548 11.378-5.439 21.442-1.414 50.246 9.641 68.978 4.7 7.965 16.042 19.161 24.501 24.187 8.593 5.104 20.923 9.736 32.922 12.365 11.582 2.539 46.492 3.628 61.098 1.907 47.404-5.586 74.258-28.754 81.005-69.884 2.074-12.649 1.402-29.782-1.577-40.145-2.093-7.285-4.811-13.488-3.532-8.062.574 2.435.556 2.444-.702.358-1.171-1.942-2.091-2.13-9.792-2-8.436.141-8.514.119-10.311-2.858-.997-1.65-1.586-2.325-1.309-1.5" fill="#1976D2" fill-rule="evenodd"/></svg>